# xmcd CD database file
#
# Track frame offsets:
#	150
#	61962
#	107678
#	160306
#	215373
#
# Disc length: 3938 seconds
#
# Revision: 0
# Processed by: cddbd v1.5.2PL0 Copyright (c) Steve Scherf et al.
# Submitted via: CDex 1.51
#
DISCID=3e0f6005
DTITLE=Levantis - Return to the Rainforest - Sounds and Music - 2
DYEAR=2005
DGENRE=New Age
TTITLE0=Sounds of Paradise - Part 1
TTITLE1=Sounds of Paradise - Part 2
TTITLE2=Sounds of Paradise - Part 3
TTITLE3=Sounds of Paradise - Part 4
TTITLE4=Sounds of Paradise - Part 5
EXTD=YEAR: 2005
EXTT0=
EXTT1=
EXTT2=
EXTT3=
EXTT4=
PLAYORDER=
